<?xml version="1.0" encoding="utf-8"?>
<!-- Generator: Adobe Illustrator 23.0.6, SVG Export Plug-In . SVG Version: 6.00 Build 0)  -->
<svg version="1.1"
	 id="Camada_1" inkscape:export-filename="C:\Users\alex\sites\bradesco-seguros-logo-0.png" inkscape:export-xdpi="561.73999" inkscape:export-ydpi="561.73999" inkscape:version="0.92.1 r15371" sodipodi:docname="bradesco-seguros-logo.svg" xmlns:cc="http://creativecommons.org/ns#" xmlns:dc="http://purl.org/dc/elements/1.1/" xmlns:inkscape="http://www.inkscape.org/namespaces/inkscape" xmlns:rdf="http://www.w3.org/1999/02/22-rdf-syntax-ns#" xmlns:sodipodi="http://sodipodi.sourceforge.net/DTD/sodipodi-0.dtd" xmlns:svg="http://www.w3.org/2000/svg"
	 xmlns="http://www.w3.org/2000/svg" xmlns:xlink="http://www.w3.org/1999/xlink" x="0px" y="0px" viewBox="0 0 202 79.3"
	 style="enable-background:new 0 0 202 79.3;" xml:space="preserve">
<style type="text/css">
	.st0{fill:#CE1C30;}
</style>
<g>
	
		<path id="path8-5" inkscape:connector-curvature="0" inkscape:export-filename="C:\Users\alex\sites\bradesco-seguros-logo-5.png" inkscape:export-xdpi="71.346344" inkscape:export-ydpi="71.346344" sodipodi:nodetypes="cccscccccccscccccccscssccscccsscccccccccccsscccccccccccccccccsccccscccsccccccccscccccscccccccccscccccsssccssscccsccccsccsccccsccsccccscccccscccccccccscc" class="st0" d="
		M121.7,21v4.7c-0.9-0.2-1.9-0.3-2.8-0.3c-5.9,0-9.9,4-9.9,10.3c0,6.3,3.9,10.1,10.1,10.1c2.7,0,5.4-0.4,8-1.2V16.7
		c-1.6,0.6-3.1,1.4-4.5,2.4C121.9,19.5,121.6,20.2,121.7,21 M121.7,41.1c-0.7,0.2-1.5,0.3-2.3,0.3c-3.5,0-4.9-2.3-4.9-5.7
		c0-3.8,1.4-6,4.9-6c0.8,0,1.6,0.1,2.3,0.3V41.1z M97.7,25.3c-1.9,0-3.9,0.2-5.8,0.6c-0.3,1.4-0.3,2.8,0,4.2
		c1.6-0.4,3.2-0.6,4.9-0.6c2.8,0,4.1,1.1,4.1,3.4v0.2c-0.8-0.1-1.8-0.2-2.5-0.2c-4.6,0-8.5,1.6-8.5,6c0,5,3.5,6.6,8.7,6.6
		c2.5,0,5.1-0.4,7.5-1.2V33.5C106.1,28.1,103.2,25.5,97.7,25.3 M100.9,41.4c-0.8,0.1-1.5,0.2-2.3,0.2c-2.5,0-3.8-0.7-3.8-2.5
		c0-1.7,1.3-2.4,3.8-2.4c0.8,0,1.8,0.1,2.3,0.1V41.4z M28.4,30.1l-3.9,2.2v13.4h4.1c0.4,0,0.7-0.3,0.7-0.7V30.6
		c0-0.3-0.2-0.6-0.6-0.6C28.6,30,28.4,30,28.4,30.1 M20.2,35.3v10c0,0.3,0.2,0.5,0.5,0.5h2.7V32.9l-2.7,1.5
		C20.4,34.6,20.2,34.9,20.2,35.3 M23.1,10.7c-2.9,0-5.8,0.3-8.6,0.7c3.1-4,7.9-6.3,12.9-6.3c3.7,0,7.4,1.3,10.3,3.6
		c0.5,0.4,0.8,0.4,1.2,0.1c0.4-0.4,0.3-0.7-0.1-1.2c-9-10.6-26-7.7-31,5.3c-2.2,0.7-4.2,1.5-6.2,2.6c-0.5,0.3-0.7,0.6-0.5,1
		c0.2,0.4,0.6,0.6,1,0.4c1.6-0.5,3.2-0.9,4.9-1.2c-0.2,0.9-0.3,1.8-0.3,2.8c-0.1,6.2,3.1,12,8.3,15.4c0.5,0.3,0.9,0.3,1.2-0.1
		c0.3-0.4,0.2-0.8-0.2-1.1c-3.2-3-5.1-7.2-5-11.6c0-2.1,0.4-4.2,1.3-6.2c1.7-0.1,3.5-0.2,5.6-0.2c13.2,0,24.3,4.4,24.3,10.1
		c0,2.9-3.7,5.8-8,7.7c-1,0.5-1.2,0.8-1,1.2c0.1,0.5,0.6,0.6,1.2,0.4c7.6-2.5,13.4-6.6,13.4-11.5C47.7,15.9,36.9,10.7,23.1,10.7
		 M65.4,25.4c-1.4,0-2.8,0.3-4,0.8v-9.6c-1.6,0.6-3.1,1.4-4.4,2.4c-0.6,0.4-1,1.2-0.9,1.9v23.7c2.3,0.8,4.7,1.2,7.1,1.1
		c7-0.1,11-4.3,11-10.5C74.1,29.2,71.3,25.4,65.4,25.4 M63.5,41.4c-0.7,0-1.4,0-2.1-0.2V30.5c1-0.4,2-0.6,3.1-0.6
		c2.7,0,4.1,1.9,4.1,5.3C68.6,38.9,66.9,41.4,63.5,41.4 M87.8,25.6c-2.2-0.1-4.2,1-5.4,2.8c-0.1-0.9-0.3-1.7-0.6-2.5
		c-0.7-0.2-1.5-0.2-2.2-0.2c-0.7,0-1.4,0.1-2.2,0.2v19.6c0.9,0.2,1.8,0.2,2.7,0.2c0.9,0,1.8-0.1,2.7-0.2v-9.6c0-3.8,2-5.8,4.7-5.8
		c0.6,0,1.2,0,1.8,0.1c0.3-1.4,0.3-2.9,0.1-4.3C88.8,25.7,88.3,25.6,87.8,25.6 M191.6,25.3c-6,0-9.4,4.1-9.4,10.3
		c0,6.2,3.5,10.2,9.4,10.2c6,0,9.4-4,9.4-10.2C201,29.5,197.6,25.3,191.6,25.3 M191.6,41.5c-3,0-3.9-2.4-3.9-5.9c0-3.5,0.9-6,3.9-6
		c3,0,3.9,2.5,3.9,6C195.5,39.2,194.5,41.5,191.6,41.5 M159.9,33.8l-2.2-0.9c-1.3-0.5-2-0.9-2-1.8c0-1.3,1.1-1.5,2.6-1.5
		c1.7,0,3.4,0.3,5,0.8c0.3-1.3,0.3-2.7,0-4c-1.8-0.8-3.8-1.1-5.8-1c-4.1,0-7.3,2.2-7.3,5.6c0,3,1.3,4.5,4.9,6l1.7,0.7
		c1.6,0.6,2.1,1,2.1,2.1c0,1.6-1.6,1.8-2.8,1.8c-2,0-4-0.4-5.8-1.1c-0.3,1.4-0.3,2.8,0,4.2c2.1,0.9,4.4,1.4,6.7,1.2
		c4.1,0,7.4-2.2,7.4-6C164.4,36.6,163,35.1,159.9,33.8 M176.6,41.4c-2.7,0-4.5-2.1-4.5-5.8c0-3.5,1.4-5.8,4.5-5.8
		c1.2,0,2.3,0.2,3.4,0.7c0.4-1.4,1-2.6,1.9-3.7c-1.8-1-3.9-1.4-6-1.3c-5.9,0-9.3,4.2-9.3,10.2c0,6.3,3.5,10.2,9.5,10.2
		c2,0.1,4.1-0.4,5.9-1.3c-0.9-1.1-1.6-2.4-2.1-3.8C179,41.2,177.8,41.5,176.6,41.4 M139.3,25.3c-5.8,0-9.3,3.9-9.3,10.4
		c0,6.5,3.8,10.1,10.2,10.1c2.1,0,4.1-0.3,6.1-1.1c0.3-1.4,0.3-2.8,0-4.1c-1.8,0.6-3.7,0.9-5.5,0.9c-3,0-5-1.1-5.5-4.3h12.2
		c0.2-0.9,0.2-1.8,0.2-2.7C147.7,28.6,144.4,25.4,139.3,25.3 M135.3,33.3c0.4-2.4,1.8-3.8,4-3.8c2.4,0,3.4,1.6,3.5,3.8H135.3z"/>
	
		<path id="path8-6" inkscape:connector-curvature="0" inkscape:export-filename="C:\Users\alex\sites\bradesco-seguros-logo-5.png" inkscape:export-xdpi="71.346344" inkscape:export-ydpi="71.346344" sodipodi:nodetypes="cccscccscccccccccccccsccccccccscccccscccccscccccscccccsccsccccsccsccccccccccscccsssccsssccsscccccsccscccccsc" class="st0" d="
		M103.1,58.8v11.4c-0.9,0.2-1.9,0.3-2.8,0.3c-2.5,0-3.9-1.4-3.9-4.3v-7.4c-0.4-0.1-0.7-0.1-1.1-0.1c-0.4,0-0.8,0-1.2,0.1v7.5
		c0,4,2.1,6.1,6,6.1c1.8,0,3.5-0.3,5.2-0.8V58.8c-0.4-0.1-0.7-0.1-1.1-0.1C103.9,58.7,103.5,58.7,103.1,58.8 M114.3,58.7
		c-1.5,0-2.8,0.7-3.6,2c0-0.6-0.1-1.2-0.2-1.9c-0.3-0.1-0.6-0.1-1-0.1c-0.3,0-0.7,0-1,0.1v13.4c0.4,0.1,0.7,0.1,1.1,0.1
		c0.4,0,0.8,0,1.2-0.1v-7.6c0-2.4,1.5-4.1,3.5-4.1c0.3,0,0.7,0,1,0.1c0.1-0.3,0.1-0.6,0.1-1c0-0.3,0-0.6-0.1-0.8
		C115,58.8,114.7,58.7,114.3,58.7 M79.9,65.6c0,3.9,2.4,6.3,5.7,6.3c1.1,0,2.2-0.2,3.2-0.6v1c0,2.8-1.4,3.9-4,3.9
		c-1.4,0-2.7-0.3-4-0.9c-0.1,0.3-0.1,0.6-0.1,0.9c0,0.3,0,0.6,0.1,0.9c1.3,0.6,2.8,0.9,4.2,0.9c3.8,0,6-2.1,6-6V59.4
		c-1.4-0.5-2.8-0.8-4.3-0.8C82.4,58.6,79.9,61.6,79.9,65.6 M88.8,69.5c-0.9,0.4-1.9,0.6-2.9,0.6c-2.3,0-3.8-1.7-3.8-4.5
		c0-3.2,1.6-5.2,4.5-5.2c0.7,0,1.5,0.1,2.2,0.3L88.8,69.5z M136.5,64.7l-1.3-0.6c-1.3-0.6-2-1-2-2c0-1.3,1.2-1.7,2.6-1.7
		c1.1,0,2.2,0.2,3.2,0.6c0.1-0.3,0.1-0.6,0.1-0.9c0-0.3,0-0.6-0.1-0.8c-1.1-0.5-2.3-0.7-3.5-0.7c-2.5,0-4.5,1.4-4.5,3.4
		c0,1.7,0.7,2.8,3.1,3.8l1,0.4c1.6,0.7,2.1,1.3,2.1,2.3c0,1.4-1.4,1.9-2.7,1.9c-1.3,0-2.6-0.3-3.9-0.8c-0.1,0.6-0.1,1.2,0,1.8
		c1.3,0.6,2.7,0.9,4.2,0.8c2.6,0,4.6-1.4,4.6-3.7C139.5,66.7,138.6,65.6,136.5,64.7 M72.6,58.6c-3.6,0-5.8,2.8-5.8,6.9
		c0,4.2,2.3,6.8,6.4,6.8c1.3,0,2.7-0.2,3.9-0.7c0.1-0.3,0.1-0.6,0.1-0.9c0-0.3,0-0.6-0.1-0.9c-1.2,0.4-2.5,0.6-3.7,0.7
		c-2.7,0-4.2-1.7-4.4-4.6h8.8c0.1-0.5,0.1-1,0.1-1.5C77.8,60.9,75.7,58.6,72.6,58.6 M69,64.3c0.2-2.5,1.7-3.9,3.6-3.9
		c2,0,3.1,1.6,3.1,3.9H69z M122.9,58.6c-3.6,0-5.9,2.5-5.9,6.9s2.2,6.9,5.9,6.9c3.6,0,5.9-2.6,5.9-6.9
		C128.8,61.1,126.7,58.6,122.9,58.6 M122.9,70.6c-2.3,0-3.6-1.8-3.6-5.1c0-3.3,1.3-5.1,3.6-5.1c2.3,0,3.6,1.7,3.6,5.1
		C126.5,68.9,125.3,70.6,122.9,70.6 M61.7,64.7l-1.3-0.6c-1.3-0.6-2-1-2-2c0-1.3,1.2-1.7,2.6-1.7c1.1,0,2.2,0.2,3.2,0.6
		c0.1-0.3,0.1-0.6,0.1-0.9c0-0.3,0-0.6-0.1-0.8c-1.1-0.5-2.3-0.7-3.5-0.7c-2.5,0-4.5,1.4-4.5,3.4c0,1.7,0.7,2.8,3.1,3.8l1,0.4
		c1.6,0.7,2.1,1.3,2.1,2.3c0,1.4-1.4,1.9-2.7,1.9c-1.3,0-2.6-0.3-3.9-0.8c-0.1,0.3-0.1,0.6-0.1,0.9c0,0.3,0,0.6,0.1,0.9
		c1.3,0.6,2.7,0.9,4.2,0.8c2.6,0,4.6-1.4,4.6-3.7C64.7,66.8,63.7,65.6,61.7,64.7"/>
</g>
</svg>
